<svg width="75" height="75" viewBox="0 0 75 75" fill="none" xmlns="http://www.w3.org/2000/svg">
<path d="M44.0859 4.92188C42.15 -1.64062 32.85 -1.64062 30.9141 4.92188L30.4453 6.51563C30.1561 7.4981 29.6506 8.40337 28.9659 9.16506C28.2812 9.92674 27.4348 10.5255 26.4886 10.9175C25.5424 11.3095 24.5204 11.4847 23.4977 11.4303C22.475 11.3759 21.4774 11.0932 20.5781 10.6031L19.125 9.80625C13.1109 6.53438 6.53437 13.1109 9.81094 19.1203L10.6031 20.5781C12.6938 24.4219 10.7109 29.2078 6.51563 30.4453L4.92188 30.9141C-1.64062 32.85 -1.64062 42.15 4.92188 44.0859L6.51563 44.5547C7.4981 44.8439 8.40337 45.3494 9.16506 46.0341C9.92674 46.7188 10.5255 47.5652 10.9175 48.5114C11.3095 49.4576 11.4847 50.4796 11.4303 51.5023C11.3759 52.525 11.0932 53.5226 10.6031 54.4219L9.80625 55.875C6.53438 61.8891 13.1109 68.4656 19.1203 65.1891L20.5781 64.3969C21.4774 63.9068 22.475 63.6241 23.4977 63.5697C24.5204 63.5153 25.5424 63.6905 26.4886 64.0825C27.4348 64.4745 28.2812 65.0733 28.9659 65.8349C29.6506 66.5966 30.1561 67.5019 30.4453 68.4844L30.9141 70.0781C32.85 76.6406 42.15 76.6406 44.0859 70.0781L44.5547 68.4844C44.8439 67.5019 45.3494 66.5966 46.0341 65.8349C46.7188 65.0733 47.5652 64.4745 48.5114 64.0825C49.4576 63.6905 50.4796 63.5153 51.5023 63.5697C52.525 63.6241 53.5226 63.9068 54.4219 64.3969L55.875 65.1937C61.8891 68.4656 68.4656 61.8891 65.1891 55.8797L64.3969 54.4219C63.9068 53.5226 63.6241 52.525 63.5697 51.5023C63.5153 50.4796 63.6905 49.4576 64.0825 48.5114C64.4745 47.5652 65.0733 46.7188 65.8349 46.0341C66.5966 45.3494 67.5019 44.8439 68.4844 44.5547L70.0781 44.0859C76.6406 42.15 76.6406 32.85 70.0781 30.9141L68.4844 30.4453C67.5019 30.1561 66.5966 29.6506 65.8349 28.9659C65.0733 28.2812 64.4745 27.4348 64.0825 26.4886C63.6905 25.5424 63.5153 24.5204 63.5697 23.4977C63.6241 22.475 63.9068 21.4774 64.3969 20.5781L65.1937 19.125C68.4656 13.1109 61.8891 6.53437 55.8797 9.81094L54.4219 10.6031C53.5226 11.0932 52.525 11.3759 51.5023 11.4303C50.4796 11.4847 49.4576 11.3095 48.5114 10.9175C47.5652 10.5255 46.7188 9.92674 46.0341 9.16506C45.3494 8.40337 44.8439 7.4981 44.5547 6.51563L44.0859 4.92188ZM37.5 51.2344C33.8574 51.2344 30.364 49.7874 27.7883 47.2117C25.2126 44.636 23.7656 41.1426 23.7656 37.5C23.7656 33.8574 25.2126 30.364 27.7883 27.7883C30.364 25.2126 33.8574 23.7656 37.5 23.7656C41.1413 23.7656 44.6335 25.2121 47.2084 27.787C49.7832 30.3618 51.2297 33.854 51.2297 37.4953C51.2297 41.1367 49.7832 44.6289 47.2084 47.2037C44.6335 49.7785 41.1413 51.225 37.5 51.225V51.2344Z" fill="white"/>
</svg>
