<svg width="53" height="75" viewBox="0 0 53 75" fill="none" xmlns="http://www.w3.org/2000/svg">
<path d="M30 34.7625V0L52.5 41.25L37.5 63.75H15L0 41.25L22.5 0V34.7625C21.0702 35.588 19.9527 36.8622 19.3209 38.3876C18.6891 39.9129 18.5782 41.6041 19.0056 43.1988C19.4329 44.7936 20.3745 46.2028 21.6843 47.2078C22.9941 48.2129 24.599 48.7577 26.25 48.7577C27.901 48.7577 29.5059 48.2129 30.8157 47.2078C32.1255 46.2028 33.0671 44.7936 33.4944 43.1988C33.9218 41.6041 33.8109 39.9129 33.1791 38.3876C32.5473 36.8622 31.4298 35.588 30 34.7625ZM11.25 67.5H41.25V75H11.25V67.5Z" fill="#EEEEEE"/>
</svg>
