<svg width="65" height="65" viewBox="0 0 65 65" fill="none" xmlns="http://www.w3.org/2000/svg">
<path d="M32.5 14.5C31.5792 14.5 30.8068 14.812 30.1828 15.436C29.5588 16.06 29.2478 16.8313 29.25 17.75L29.25 38.15L26.325 35.225C25.7292 34.6292 24.9708 34.3313 24.05 34.3313C23.1292 34.3313 22.3708 34.6292 21.775 35.225C21.1792 35.8208 20.8813 36.5792 20.8813 37.5C20.8813 38.4208 21.1792 39.1792 21.775 39.775L30.225 48.225C30.55 48.55 30.9021 48.7797 31.2813 48.914C31.6604 49.0483 32.0667 49.1166 32.5 49.1188C32.9333 49.1188 33.3396 49.0505 33.7188 48.914C34.0979 48.7775 34.45 48.5478 34.775 48.225L43.225 39.775C43.8208 39.1792 44.1188 38.4208 44.1188 37.5C44.1188 36.5792 43.8208 35.8208 43.225 35.225C42.6292 34.6292 41.8708 34.3313 40.95 34.3313C40.0292 34.3313 39.2708 34.6292 38.675 35.225L35.75 38.15L35.75 17.75C35.75 16.8292 35.438 16.0568 34.814 15.4328C34.19 14.8088 33.4187 14.4978 32.5 14.5ZM32.5 7.62939e-06C36.9958 7.62939e-06 41.2208 0.853668 45.175 2.561C49.1292 4.26834 52.5688 6.58342 55.4937 9.50625C58.4187 12.4313 60.7338 15.8708 62.439 19.825C64.1442 23.7792 64.9978 28.0042 65 32.5C65 36.9958 64.1463 41.2208 62.439 45.175C60.7317 49.1292 58.4166 52.5688 55.4937 55.4937C52.5688 58.4187 49.1292 60.7338 45.175 62.439C41.2208 64.1442 36.9958 64.9978 32.5 65C28.0042 65 23.7792 64.1463 19.825 62.439C15.8708 60.7317 12.4313 58.4166 9.50625 55.4937C6.58125 52.5688 4.26509 49.1292 2.55776 45.175C0.850426 41.2208 -0.00215912 36.9958 7.62939e-06 32.5C7.62939e-06 28.0042 0.853668 23.7792 2.561 19.825C4.26834 15.8708 6.58342 12.4313 9.50625 9.50625C12.4313 6.58125 15.8708 4.26509 19.825 2.55776C23.7792 0.850426 28.0042 -0.00215912 32.5 7.62939e-06Z" fill="#EEEEEE"/>
</svg>
