<svg width="165" height="37" viewBox="0 0 165 37" fill="none" xmlns="http://www.w3.org/2000/svg">
<path d="M0.699219 0H23.1493L26.7814 14.6748H26.8916L26.5629 0H39.6031V37H17.8141L13.1362 18.667H13.026L13.7973 37H0.699219V0Z" fill="white"/>
<path d="M42.2474 0H58.8655V37H42.2474V0Z" fill="white"/>
<path d="M61.5116 0V37H83.9617L100.414 0H83.5434L74.7554 25.7296H74.6004V0H61.5116Z" fill="white"/>
<path d="M103.06 0H119.678V37H103.06V0Z" fill="white"/>
<path d="M138.998 0V13.9459H139.108L145.93 0H163.428L153.082 16.1938L164.804 36.9981H144.664L139.657 25.9223L138.996 26.8192V36.9981H122.324V0H138.998Z" fill="white"/>
</svg>
