<svg width="75" height="67" viewBox="0 0 75 67" fill="none" xmlns="http://www.w3.org/2000/svg">
<path d="M66.6667 0C68.8768 0 70.9964 0.877973 72.5592 2.44078C74.122 4.00358 75 6.1232 75 8.33333V58.3333C75 60.5435 74.122 62.6631 72.5592 64.2259C70.9964 65.7887 68.8768 66.6667 66.6667 66.6667H8.33333C6.1232 66.6667 4.00358 65.7887 2.44078 64.2259C0.877973 62.6631 0 60.5435 0 58.3333V8.33333C0 6.1232 0.877973 4.00358 2.44078 2.44078C4.00358 0.877973 6.1232 0 8.33333 0H66.6667ZM66.6667 25H8.33333V54.1667C8.33347 55.1872 8.70815 56.1722 9.38631 56.9349C10.0645 57.6975 10.999 58.1848 12.0125 58.3042L12.5 58.3333H62.5C63.5206 58.3332 64.5056 57.9585 65.2682 57.2803C66.0309 56.6022 66.5181 55.6677 66.6375 54.6542L66.6667 54.1667V25ZM12.5 8.33333C11.3949 8.33333 10.3351 8.77232 9.55372 9.55372C8.77232 10.3351 8.33333 11.3949 8.33333 12.5C8.33333 13.6051 8.77232 14.6649 9.55372 15.4463C10.3351 16.2277 11.3949 16.6667 12.5 16.6667C13.6051 16.6667 14.6649 16.2277 15.4463 15.4463C16.2277 14.6649 16.6667 13.6051 16.6667 12.5C16.6667 11.3949 16.2277 10.3351 15.4463 9.55372C14.6649 8.77232 13.6051 8.33333 12.5 8.33333ZM25 8.33333C23.8949 8.33333 22.8351 8.77232 22.0537 9.55372C21.2723 10.3351 20.8333 11.3949 20.8333 12.5C20.8333 13.6051 21.2723 14.6649 22.0537 15.4463C22.8351 16.2277 23.8949 16.6667 25 16.6667C26.1051 16.6667 27.1649 16.2277 27.9463 15.4463C28.7277 14.6649 29.1667 13.6051 29.1667 12.5C29.1667 11.3949 28.7277 10.3351 27.9463 9.55372C27.1649 8.77232 26.1051 8.33333 25 8.33333ZM37.5 8.33333C36.3949 8.33333 35.3351 8.77232 34.5537 9.55372C33.7723 10.3351 33.3333 11.3949 33.3333 12.5C33.3333 13.6051 33.7723 14.6649 34.5537 15.4463C35.3351 16.2277 36.3949 16.6667 37.5 16.6667C38.6051 16.6667 39.6649 16.2277 40.4463 15.4463C41.2277 14.6649 41.6667 13.6051 41.6667 12.5C41.6667 11.3949 41.2277 10.3351 40.4463 9.55372C39.6649 8.77232 38.6051 8.33333 37.5 8.33333Z" fill="white"/>
</svg>
